<?xml version="1.0" standalone="no"?>
<!DOCTYPE svg PUBLIC "-//W3C//DTD SVG 20010904//EN"
 "http://www.w3.org/TR/2001/REC-SVG-20010904/DTD/svg10.dtd">
<svg version="1.0" xmlns="http://www.w3.org/2000/svg"
 width="209.000000pt" height="54.000000pt" viewBox="0 0 209.000000 54.000000"
 preserveAspectRatio="xMidYMid meet">

<g transform="translate(0.000000,54.000000) scale(0.100000,-0.100000)"
fill="#000000" stroke="none">
<path d="M312 319 c-40 -83 -72 -154 -72 -159 0 -5 13 -18 29 -29 l29 -21 72
41 c39 23 72 40 74 38 1 -2 8 -19 15 -36 12 -30 17 -33 56 -33 l43 0 -24 47
c-13 27 -24 51 -24 55 0 3 24 20 53 37 59 34 55 37 -21 17 l-54 -15 -50 105
c-27 57 -51 104 -52 104 -2 0 -35 -68 -74 -151z m91 -39 c9 -16 12 -31 9 -34
-14 -7 -62 -16 -62 -12 0 7 33 76 36 76 1 0 9 -13 17 -30z"/>
</g>
</svg>
